<?xml version="1.0" encoding="UTF-8" standalone="no"?>
<!DOCTYPE svg PUBLIC "-//W3C//DTD SVG 1.1//EN" "http://www.w3.org/Graphics/SVG/1.1/DTD/svg11.dtd">
<svg width="100%" height="100%" viewBox="0 0 100 100" version="1.1" xmlns="http://www.w3.org/2000/svg" xmlns:xlink="http://www.w3.org/1999/xlink" xml:space="preserve" xmlns:serif="http://www.serif.com/" style="fill-rule:evenodd;clip-rule:evenodd;stroke-linejoin:round;stroke-miterlimit:2;">
    <g transform="matrix(1.07509,0,0,1.07509,-3.75511,-3.75468)">
        <g transform="matrix(0.843549,0,0,0.950644,8.38004,4.39672)">
            <path d="M28.455,52.413L28.455,58.581C28.455,59.719 27.684,60.745 26.501,61.181C25.318,61.616 23.956,61.375 23.051,60.571L11.114,49.96C9.878,48.862 9.878,47.08 11.114,45.981L23.051,35.371C23.956,34.566 25.318,34.326 26.501,34.761C27.684,35.197 28.455,36.223 28.455,37.361L28.455,43.528L70.223,43.528L70.223,37.361C70.223,36.223 70.995,35.197 72.177,34.761C73.36,34.326 74.722,34.566 75.627,35.371L87.564,45.981C88.8,47.08 88.8,48.862 87.564,49.96L75.627,60.571C74.722,61.375 73.36,61.616 72.177,61.181C70.995,60.745 70.223,59.719 70.223,58.581L70.223,52.413L28.455,52.413Z"/>
        </g>
        <g transform="matrix(1.46702,0,0,0.986488,-23.0335,3.50686)">
            <path d="M23.967,5.877L23.967,88.383C23.967,90.556 22.781,92.321 21.319,92.321L21.157,92.321C19.695,92.321 18.509,90.556 18.509,88.383L18.509,5.877C18.509,3.703 19.695,1.939 21.157,1.939L21.319,1.939C22.781,1.939 23.967,3.703 23.967,5.877Z"/>
        </g>
        <g transform="matrix(1.46702,0,0,0.986488,60.7211,3.50686)">
            <path d="M23.967,5.877L23.967,88.383C23.967,90.556 22.781,92.321 21.319,92.321L21.157,92.321C19.695,92.321 18.509,90.556 18.509,88.383L18.509,5.877C18.509,3.703 19.695,1.939 21.157,1.939L21.319,1.939C22.781,1.939 23.967,3.703 23.967,5.877Z"/>
        </g>
    </g>
</svg>
