<?xml version="1.0" encoding="UTF-8" standalone="no"?>
<!DOCTYPE svg PUBLIC "-//W3C//DTD SVG 1.1//EN" "http://www.w3.org/Graphics/SVG/1.1/DTD/svg11.dtd">
<svg width="100%" height="100%" viewBox="0 0 100 100" version="1.1" xmlns="http://www.w3.org/2000/svg" xmlns:xlink="http://www.w3.org/1999/xlink" xml:space="preserve" xmlns:serif="http://www.serif.com/" style="fill-rule:evenodd;clip-rule:evenodd;stroke-linejoin:round;stroke-miterlimit:2;">
    <g transform="matrix(1.0781,0,0,1.0781,-3.90545,-3.90502)">
        <g transform="matrix(0.590052,0,0,0.553871,-13.8993,-2.19227)">
            <path d="M78.584,16.13C78.584,15.335 78.164,14.69 77.647,14.69L30.632,14.69C30.115,14.69 29.695,15.335 29.695,16.13L29.695,88.365C29.695,89.16 30.115,89.805 30.632,89.805L77.647,89.805C78.164,89.805 78.584,89.16 78.584,88.365L78.584,16.13Z"/>
        </g>
        <g transform="matrix(0.590052,0,0,0.553871,-13.8993,44.3152)">
            <path d="M78.584,16.13C78.584,15.335 78.164,14.69 77.647,14.69L30.632,14.69C30.115,14.69 29.695,15.335 29.695,16.13L29.695,88.365C29.695,89.16 30.115,89.805 30.632,89.805L77.647,89.805C78.164,89.805 78.584,89.16 78.584,88.365L78.584,16.13Z"/>
        </g>
        <g transform="matrix(0.590052,0,0,0.553871,17.5184,-2.19227)">
            <path d="M78.584,16.13C78.584,15.335 78.164,14.69 77.647,14.69L30.632,14.69C30.115,14.69 29.695,15.335 29.695,16.13L29.695,88.365C29.695,89.16 30.115,89.805 30.632,89.805L77.647,89.805C78.164,89.805 78.584,89.16 78.584,88.365L78.584,16.13Z"/>
        </g>
        <g transform="matrix(0.590052,0,0,0.553871,50.0095,-2.19227)">
            <path d="M78.584,16.13C78.584,15.335 78.164,14.69 77.647,14.69L30.632,14.69C30.115,14.69 29.695,15.335 29.695,16.13L29.695,88.365C29.695,89.16 30.115,89.805 30.632,89.805L77.647,89.805C78.164,89.805 78.584,89.16 78.584,88.365L78.584,16.13Z"/>
        </g>
        <g transform="matrix(0.590052,0,0,0.553871,17.5184,44.3152)">
            <path d="M78.584,16.13C78.584,15.335 78.164,14.69 77.647,14.69L30.632,14.69C30.115,14.69 29.695,15.335 29.695,16.13L29.695,88.365C29.695,89.16 30.115,89.805 30.632,89.805L77.647,89.805C78.164,89.805 78.584,89.16 78.584,88.365L78.584,16.13Z"/>
        </g>
        <g transform="matrix(0.590052,0,0,0.553871,50.0095,44.3152)">
            <path d="M78.584,16.13C78.584,15.335 78.164,14.69 77.647,14.69L30.632,14.69C30.115,14.69 29.695,15.335 29.695,16.13L29.695,88.365C29.695,89.16 30.115,89.805 30.632,89.805L77.647,89.805C78.164,89.805 78.584,89.16 78.584,88.365L78.584,16.13Z"/>
        </g>
    </g>
</svg>
