<?xml version="1.0" encoding="UTF-8" standalone="no"?>
<!DOCTYPE svg PUBLIC "-//W3C//DTD SVG 1.1//EN" "http://www.w3.org/Graphics/SVG/1.1/DTD/svg11.dtd">
<svg width="100%" height="100%" viewBox="0 0 100 100" version="1.1" xmlns="http://www.w3.org/2000/svg" xmlns:xlink="http://www.w3.org/1999/xlink" xml:space="preserve" xmlns:serif="http://www.serif.com/" style="fill-rule:evenodd;clip-rule:evenodd;stroke-linejoin:round;stroke-miterlimit:2;">
    <g transform="matrix(1.0781,0,0,1.0781,-3.90545,-3.90502)">
        <g transform="matrix(0.841196,0,0,0.947993,8.49652,4.52391)">
            <path d="M44.333,52.413L28.455,52.413L28.455,58.581C28.455,59.719 27.684,60.745 26.501,61.181C25.318,61.616 23.956,61.375 23.051,60.571L11.114,49.96C9.878,48.862 9.878,47.08 11.114,45.981L23.051,35.371C23.956,34.566 25.318,34.326 26.501,34.761C27.684,35.197 28.455,36.223 28.455,37.361L28.455,43.528L44.333,43.528L44.333,29.439L37.382,29.439C36.099,29.439 34.943,28.755 34.452,27.705C33.961,26.656 34.233,25.448 35.14,24.644L47.097,14.052C48.335,12.956 50.343,12.956 51.581,14.052L63.539,24.644C64.446,25.448 64.717,26.656 64.226,27.705C63.735,28.755 62.579,29.439 61.296,29.439L54.346,29.439L54.346,43.528L70.223,43.528L70.223,37.361C70.223,36.223 70.995,35.197 72.177,34.761C73.36,34.326 74.722,34.566 75.627,35.371L87.564,45.981C88.8,47.08 88.8,48.862 87.564,49.96L75.627,60.571C74.722,61.375 73.36,61.616 72.177,61.181C70.995,60.745 70.223,59.719 70.223,58.581L70.223,52.413L54.346,52.413L54.346,66.502L61.296,66.502C62.579,66.502 63.735,67.187 64.226,68.236C64.717,69.286 64.446,70.494 63.539,71.297L51.581,81.889C50.343,82.986 48.335,82.986 47.097,81.889L35.14,71.297C34.233,70.494 33.961,69.286 34.452,68.236C34.943,67.187 36.099,66.502 37.382,66.502L44.333,66.503L44.333,52.413Z"/>
        </g>
        <g transform="matrix(1.0247,0,0,1.0247,-5.47698,-3.53855)">
            <path d="M99.4,14.269L99.4,90.227C99.4,94.245 96.137,97.508 92.119,97.508L16.161,97.508C12.142,97.508 8.88,94.245 8.88,90.227L8.88,14.269C8.88,10.25 12.142,6.988 16.161,6.988L92.119,6.988C96.137,6.988 99.4,10.25 99.4,14.269ZM93.633,14.269C93.633,13.433 92.955,12.755 92.119,12.755L16.161,12.755C15.325,12.755 14.647,13.433 14.647,14.269L14.647,90.227C14.647,91.062 15.325,91.741 16.161,91.741L92.119,91.741C92.955,91.741 93.633,91.062 93.633,90.227L93.633,14.269Z"/>
        </g>
    </g>
</svg>
