<?xml version="1.0" encoding="UTF-8" standalone="no"?>
<svg
   viewBox="0 0 94.65 94.6"
   version="1.1"
   id="svg11"
   sodipodi:docname="thumbnail.svg"
   inkscape:version="1.4 (e7c3feb100, 2024-10-09)"
   xmlns:inkscape="http://www.inkscape.org/namespaces/inkscape"
   xmlns:sodipodi="http://sodipodi.sourceforge.net/DTD/sodipodi-0.dtd"
   xmlns="http://www.w3.org/2000/svg"
   xmlns:svg="http://www.w3.org/2000/svg"
   xmlns:rdf="http://www.w3.org/1999/02/22-rdf-syntax-ns#"
   xmlns:cc="http://creativecommons.org/ns#"
   xmlns:dc="http://purl.org/dc/elements/1.1/">
  <sodipodi:namedview
     id="namedview13"
     pagecolor="#ffffff"
     bordercolor="#111111"
     borderopacity="1"
     inkscape:showpageshadow="0"
     inkscape:pageopacity="0"
     inkscape:pagecheckerboard="1"
     inkscape:deskcolor="#d1d1d1"
     showgrid="false"
     inkscape:zoom="8.4989431"
     inkscape:cx="38.887188"
     inkscape:cy="47.417661"
     inkscape:window-width="1920"
     inkscape:window-height="1043"
     inkscape:window-x="0"
     inkscape:window-y="0"
     inkscape:window-maximized="1"
     inkscape:current-layer="svg11" />
  <defs
     id="defs4">
    <style
       id="style2">.cls-1{fill:#ed1f24;}</style>
  </defs>
  <title
     id="title6">NaturalCritLogo</title>
  <g
     id="Layer_2"
     data-name="Layer 2"
     style="fill:#000000;stroke:#000000">
    <g
       id="base"
       style="fill:#000000;stroke:#000000">
      <path
         id="D20"
         class="cls-1"
         d="M63.45.09s-45.91,12.4-46,12.45a.71.71,0,0,0-.15.08l-.15.1-.12.11a1.07,1.07,0,0,0-.14.16l-.09.11-.12.23,0,.06L.2,54.9a1.59,1.59,0,0,0,.11,1.69L29.36,94h0l0,0,.08.08.08.08.09.09.08.06.13.07a0,0,0,0,0,0,0,1.59,1.59,0,0,0,.27.12l.13.05.06,0a1.55,1.55,0,0,0,.37,0,1.63,1.63,0,0,0,.31,0l45.67-8.3.16,0,.11,0,.12,0,.06,0s0,0,0,0l.06,0a1.65,1.65,0,0,0,.36-.28l0-.06a1.6,1.6,0,0,0,.26-.38s0,0,0,0v0h0a.14.14,0,0,1,0-.06L94.52,43.74a1.4,1.4,0,0,0,.11-.4.41.41,0,0,0,0-.11,1.13,1.13,0,0,0,0-.26.66.66,0,0,0,0-.14,2,2,0,0,0-.06-.26l0-.11a2.68,2.68,0,0,0-.18-.33v0L65.29.6C64.77-.31,63.45.09,63.45.09ZM74.9,81.7l-28.81-18L78.5,38.49ZM44.1,61l-11-40.17L77,35.39ZM82,37.78l8.92,5.95L79,73.48Zm4.46-1.1-4.6-3.06L75.69,21.36Zm-9.26-4.8-42.07-14,28.05-14ZM30.56,16.34l-6.49-2.16L47.85,7.7Zm-11.35-.21L27.88,19,7.64,45Zm10.73,5.76L40.78,61.64,4.64,54.42Zm10.82,43.2L30.26,89.6,5.75,58.09Zm3.16,1.24L71.74,83.72l-38.26,7Z"
         style="fill:#000000;fill-opacity:1;stroke:#000000" />
    </g>
  </g>
  <metadata
     id="metadata1">
    <rdf:RDF>
      <cc:Work
         rdf:about="">
        <dc:title>NaturalCritLogo</dc:title>
      </cc:Work>
    </rdf:RDF>
  </metadata>
</svg>
