<svg xmlns="http://www.w3.org/2000/svg" viewBox="0 0 611.99 154.72"><defs><style>.cls-1{fill:#f4f0f1;}.cls-2{fill:#d0d4d0;stroke:#888;stroke-linecap:round;stroke-miterlimit:35;stroke-width:0.5px;}</style></defs><title>Asset 2</title><g id="Layer_2" data-name="Layer 2"><g id="svg"><polygon id="background" class="cls-1" points="221.58 0 221.58 86.65 305.82 136.18 389.8 86.91 389.8 0 221.58 0"/><path id="right_triangle_compound_path" data-name="right triangle compound path" class="cls-2" d="M526.31.25c0,14.18-.08,26.67-.12,40.85,0,4.47-2.72,11-11.77,11-3.25.16-13.9-1.11-23.74-6.57L410.79.25h-2.53L527.82,69.38V.25Zm-.06,66.27L498.44,50.67c1,.39,14.21,4,19.29,2.81a13.9,13.9,0,0,0,8.52-6Z"/><path id="main_shape" data-name="main shape" class="cls-2" d="M598.88,123.48l-.13-65.27a81.69,81.69,0,0,1-24,20.31,79.73,79.73,0,0,1-26.8,9L544.82,86a78.57,78.57,0,0,0,42.52-18.09c15.33-13,22.12-30.25,24.4-37.06v-7a80.45,80.45,0,0,1-15.39,31.7c.63-1,16.49-26.4-2.42-55.2h-2.37c3.37,5,12.23,19.65,9.21,37.64-4,24-27.74,43.84-58.54,46.25L471.67,43.29a3.24,3.24,0,0,0-1.37-3,3.2,3.2,0,0,0-3.55,0L447.21,29a7,7,0,0,0-2.25-2.7,7,7,0,0,0-4.73-1.19l-16.59-9.57C414.47,10.29,404,4.25,397.06.25h-3.32L436.1,25.46s-36.92.06-40.94.11c-2.79-1.71-2.7,3.24,0,1.62h41.71l-46.4.37L390.3.26h-1.57L388.79,86l-41.1,24.5c-6.35,3.73-24.5,13.91-42.86,14.1s-36.47-11.3-44-15.49C248,101.8,235.15,93.85,222.33,86.52L222.46.25h-2V28l-46.09-.37h41.7c2.71,1.62,2.79-3.33,0-1.62-4-.05-40.93-.11-40.93-.11L218.32.25H215c-7,4-18.25,10.52-27.42,15.8L171,25.62a7,7,0,0,0-4.73,1.19,7,7,0,0,0-2.25,2.7L144.46,40.72a3.19,3.19,0,0,0-3.54.05,3.24,3.24,0,0,0-1.37,3L69,84.62c-30.8-2.41-54.53-22.3-58.54-46.25-3-18,5.84-32.62,9.2-37.64H17.29c-18.91,28.8-3,54.19-2.42,55.2C2.75,41,.27,26.28.27,26.28l0,7.08a78.31,78.31,0,0,0,23.63,35A78.57,78.57,0,0,0,66.4,86.43L63.22,88a79.66,79.66,0,0,1-26.8-9,81.76,81.76,0,0,1-24-20.31L12.34,124C12.46,141,.25,147.51.25,147.51v1.72a27.5,27.5,0,0,0,8.43-8A29,29,0,0,0,13,131.51v10.41L.25,152v2.1L26,133.61v-22l20.48-12c62.61,1.71,93.58-40,99.08-46.72,21.86-20.39,70.66-22.25,74.93-22.37V87.7l85.25,49.11,85.12-49.4-.33-57.36s52.35,1.05,75.23,22.38c5.49,6.67,36.47,48.43,99.08,46.72l20.48,12v22l26.47,21.07v-2.1l-13.55-10.66V131a29,29,0,0,0,4.35,9.72,32.12,32.12,0,0,0,9.2,8.6v-1.72A27.69,27.69,0,0,1,598.88,123.48ZM139.64,46.06c-.25.47-8.48,15.47-26.11,27.94-17.91,12.67-40,10.81-40,10.81ZM24.06,110.34l.1,22.47-7.09,6.1V93.77a99.79,99.79,0,0,0,12.3,3.52,99.74,99.74,0,0,0,13.8,2ZM48.19,97A102.43,102.43,0,0,1,30,95.38a103,103,0,0,1-15-3.87l-.09,48.35L13.76,141q.22-39,.47-77.9A83.48,83.48,0,0,0,36.08,80.34a82.84,82.84,0,0,0,25.15,8.85Zm30.54-3a121.63,121.63,0,0,1-26.57,3l12-7.14a96,96,0,0,0,15.51.29A97,97,0,0,0,102.19,86,122.56,122.56,0,0,1,78.73,94ZM140,55.86C135.3,61.42,126.49,71.79,114.11,79,96,89.52,77.09,89.38,66.63,88.34l2.65-1.62A77.74,77.74,0,0,0,112,77.14c17.82-9.9,26.42-24.69,29.83-30.8.2,0,2.07.45,3.05-.86a3.75,3.75,0,0,0,.64-2.86l6.71-3.76A128.27,128.27,0,0,1,140,55.86ZM164.8,39.57a119.38,119.38,0,0,0-15.51,8.29l7-11.33,11-6.29,36.42-.38C190.52,32.15,179.34,33.15,164.8,39.57Zm140.83,95.27-23.08-13.27c3.87,1.5,15.25,4.45,22.63,4.45s18.72-2.93,23.34-4.45Zm232.1-50.51s-22.14,1.87-40-10.81c-17.63-12.47-25.85-27.47-26.1-27.94ZM446.43,39.1c-14.55-6.43-25.73-7.43-38.88-9.72l36.41.38,11,6.29,7,11.33A118,118,0,0,0,446.43,39.1ZM471.2,55.38a128.27,128.27,0,0,1-12.2-17l6.71,3.76a3.73,3.73,0,0,0,.65,2.86c1,1.31,2.84.85,3.05.86,3.4,6.11,12,20.9,29.83,30.8A77.73,77.73,0,0,0,542,86.24l2.64,1.62c-10.47,1-29.4,1.18-47.48-9.34C484.73,71.32,475.92,60.94,471.2,55.38Zm61.29,38.1A123,123,0,0,1,509,85.54a96.54,96.54,0,0,0,22.51,4.13,96,96,0,0,0,15.51-.29l12,7.14A121.63,121.63,0,0,1,532.49,93.48Zm61.67,45-7.1-6.1.09-22.47-19.1-11a99.66,99.66,0,0,0,13.81-2,100.3,100.3,0,0,0,12.3-3.52Zm2.17.95L596.23,91a102.68,102.68,0,0,1-15,3.87A102.43,102.43,0,0,1,563,96.52l-13-7.81a82.61,82.61,0,0,0,25.16-8.85A83.14,83.14,0,0,0,597,62.62q.22,39,.47,77.9Z"/><path id="left_triangle_compound_path" data-name="left triangle compound path" class="cls-2" d="M83.4.73V69.86L203.77.25h-2.53l-80.7,45.8c-9.84,5.46-20.49,6.73-23.74,6.57-9,0-11.77-6.57-11.77-11C85,27.4,85,14.91,84.91.73ZM85,48a13.87,13.87,0,0,0,8.51,6c5.08,1.18,18.26-2.42,19.29-2.81L85,67Z"/></g></g></svg>