<svg id="Layer_3" data-name="Layer 3" xmlns="http://www.w3.org/2000/svg" viewBox="0 0 350.028 390.552"><defs><style>.cls-1{opacity:0.9;}.cls-2{fill:#001013;}.cls-3{fill:#fff;}.cls-4{fill:#aa2a29;}</style></defs><title>Discord of Many Things blank</title><g class="cls-1"><path d="M100.991,82.743c-1.649,3.324-3.395,5.768-4.1,8.482-1.49,5.753-3.44,11.644-3.455,17.482q-.332,125.259-.141,250.519c.007,20.122,12.708,36.368,31.407,40.239a38.328,38.328,0,0,0,7.722.761q103.611,0,207.222-.088h6.314c-3.256-11.462-9.664-34.015-9.664-34.015l2.431,2.023s41.561,37.755,62.33,56.6c2.489,2.26,3.694,4.462,3.593,7.885-.241,8.186-.078,16.383-.078,25.492-6.333-5.527-11.928-10.35-17.457-15.247-9.586-8.493-19.2-16.957-28.644-25.6a10.032,10.032,0,0,0-7.39-2.774q-117.228-.1-234.457-.334c-20.632-.031-33.959-9.189-41.021-28.578-.852-2.339-.783-5.091-.784-7.653q-.057-116.5-.031-233.007V119.145C74.791,102.517,84.2,89.068,100.991,82.743Z" transform="translate(-74.79 -67.573)"/></g><path class="cls-2" d="M338.234,371.589s5.556,19.924,8.513,30.53h-5.075c-69.335,0-138.67-.1-208,.074-16.925.043-35.116-9.515-40.505-33.247a26.538,26.538,0,0,1-.379-5.827q-.027-128.172.025-256.344c.021-19.276,15.226-36.749,34.427-38.688a82.669,82.669,0,0,1,8.279-.447q123.288-.034,246.578-.067c13.265-.016,24.7,3.79,33.278,14.235a39.273,39.273,0,0,1,9.447,25.5q-.015,167.477-.012,334.955c0,1.245-.1,2.49-.2,4.645-4.075-3.565-7.6-6.552-11.018-9.655q-35.236-31.992-70.44-64.017c-1.2-1.091-3.713-3.147-3.713-3.147l-2-1.775Z" transform="translate(-74.79 -67.573)"/><path class="cls-3" d="M419.838,435.934c-7.848-6.892-15.026-12.977-21.961-19.329q-28.235-25.86-56.253-51.954c-2.314-2.157-4.59-3.247-7.356-1.784-3.036,1.607-2.77,4.676-2.022,7.359,2.286,8.2,4.817,16.338,7.24,24.5a17.108,17.108,0,0,1,.294,1.851c-1.486.084-2.872.233-4.258.233-67.363.012-134.726-.155-202.088.123-18.267.075-32.955-13.095-34.769-29.353a92.257,92.257,0,0,1-.886-10.108Q97.7,233.488,97.793,109.5c.013-10.518,3.19-20.063,11.156-27.471a31.92,31.92,0,0,1,20.439-8.917c1.948-.109,3.9-.181,5.852-.181q123.5-.014,247-.063c9.957-.012,18.894,2.145,26.329,9.1,7.956,7.441,11.177,16.934,11.214,27.457.142,40.84.057,81.681.057,122.522V435.934Z" transform="translate(-74.79 -67.573)"/><path class="cls-4" d="M311.029,170.975c-11.8,45.005-23.315,88.959-35.123,134.016l-97.168-98.883Z" transform="translate(-74.79 -67.573)"/><path class="cls-4" d="M380.8,265.712l-95.97,40.316c11.438-43.808,22.639-86.709,33.839-129.609l1.08-.272Z" transform="translate(-74.79 -67.573)"/><path class="cls-4" d="M165.3,322.955c2.91-36.463,5.761-72.179,8.709-109.116l94.711,96.472Z" transform="translate(-74.79 -67.573)"/><path class="cls-4" d="M223.458,107.926l83.127,55.063L178.71,196.919Z" transform="translate(-74.79 -67.573)"/><path class="cls-4" d="M366.285,281.366l-72.5,73.414c-3.524-13.182-6.849-25.617-10.306-38.549Z" transform="translate(-74.79 -67.573)"/><path class="cls-4" d="M274.874,318.478c3.445,12.8,6.765,25.143,10.376,38.559l-98.635-26.556.032-1.153Z" transform="translate(-74.79 -67.573)"/><path class="cls-4" d="M374.888,241.261l-51.71-75.57,26.8-21.529,25.831,96.619Z" transform="translate(-74.79 -67.573)"/><path class="cls-4" d="M165.492,207.523c-2.39,30.748-4.736,60.942-7.083,91.135l-1.063.159c-8.5-31.936-17-63.872-25.705-96.581Z" transform="translate(-74.79 -67.573)"/><path class="cls-4" d="M317.039,159.316l-68.251-45.24.307-.794,93.794,25.212Z" transform="translate(-74.79 -67.573)"/><path class="cls-4" d="M136.517,193.952,203.5,125.03l1.086.832L167.794,198.9Z" transform="translate(-74.79 -67.573)"/></svg>