<svg xmlns="http://www.w3.org/2000/svg" viewBox="0 0 744.84 813.62"><defs><style>.cls-1{fill:#ed1f24;}</style></defs><title>Asset 1</title><g id="Layer_2" data-name="Layer 2"><g id="Cauldron"><path id="cauldronHole" class="cls-1" d="M185.29,221.31c0,18.17,83.8,32.92,187.14,32.92s187.15-14.74,187.15-32.92c0-10.67-29.12-20.17-74.08-26.2a73.57,73.57,0,0,1-122.74-6.68C264,189.34,185.29,203.7,185.29,221.31Z"/><path id="cauldron-2" data-name="cauldron" class="cls-1" d="M744.84,494a370.24,370.24,0,0,0-77.62-227.1c10.54-13.33,13.44-26.41,13.44-36.73,0-62.65-97.64-89.18-183.59-100.38a74,74,0,0,1,3.42,21.11c0,.86-.21,1.62-.27,2.48h0a73,73,0,0,1-4.57,23.15c86.79,12.21,138.27,35.77,138.27,53.65,0,25.2-101.86,61.82-261.5,61.82s-261.5-36.62-261.5-61.82c0-24.22,94.39-58.92,243.59-61.55a82.67,82.67,0,0,1-1.91-11.66h.17c-.17-2-.6-4-.6-6.06a73.91,73.91,0,0,1,6-29.14c-64.69,1.22-294,12.38-294,108.41,0,10.32,2.9,23.4,13.44,36.73A370.22,370.22,0,0,0,0,494C0,604,49.43,685.6,140,733.33c-8.6,30-13.26,67.24,10.59,78,25,11.23,51.12-20.38,67.77-47.7,45.08,12,96.54,18.33,154,18.33s108.91-6.3,154-18.32c16.68,27.31,42.82,58.9,67.78,47.69,23.86-10.7,19.19-48,10.61-77.94C695.41,685.59,744.84,604,744.84,494ZM614.41,277.09c51.75,57.62,83.68,133.42,83.68,216.81,0,199.37-177.09,241.2-325.66,241.2S46.77,693.27,46.77,493.9c0-83.39,31.93-159.16,83.69-216.84,53,25.19,147.74,38.2,242,38.2S561.41,302.24,614.41,277.09Z"/><path id="bigBubble" class="cls-1" d="M426.32,200.67a49.86,49.86,0,1,0-49.85-49.87A49.86,49.86,0,0,0,426.32,200.67Z"/><circle id="mediumBubble" class="cls-1" cx="543.08" cy="74.06" r="34.26"/><circle id="smallBubble" class="cls-1" cx="445.02" cy="26.02" r="26.02"/></g></g></svg>