<svg xmlns="http://www.w3.org/2000/svg" viewBox="0 0 94.65 94.6"><path d="M63.45.09s-45.91 12.4-46 12.45a.71.71 0 0 0-.15.08l-.15.1-.12.11a1.07 1.07 0 0 0-.14.16l-.09.11-.12.23v.06L.2 54.9a1.59 1.59 0 0 0 .11 1.69L29.36 94l.08.08.08.08.09.09.08.06.13.07a1.59 1.59 0 0 0 .27.12l.13.05h.06a1.55 1.55 0 0 0 .37 0 1.63 1.63 0 0 0 .31 0l45.67-8.3h.51a1.65 1.65 0 0 0 .36-.28v-.06a1.6 1.6 0 0 0 .26-.38.14.14 0 0 1 0-.06l16.76-41.73a1.4 1.4 0 0 0 .11-.4.41.41 0 0 0 0-.11 1.13 1.13 0 0 0 0-.26.66.66 0 0 0 0-.14 2 2 0 0 0-.06-.26v-.11a2.68 2.68 0 0 0-.18-.33L65.29.6c-.52-.91-1.84-.51-1.84-.51ZM74.9 81.7l-28.81-18L78.5 38.49ZM44.1 61l-11-40.17L77 35.39ZM82 37.78l8.92 5.95L79 73.48Zm4.46-1.1-4.6-3.06-6.17-12.26Zm-9.26-4.8-42.07-14 28.05-14ZM30.56 16.34l-6.49-2.16L47.85 7.7Zm-11.35-.21L27.88 19 7.64 45Zm10.73 5.76 10.84 39.75-36.14-7.22Zm10.82 43.2L30.26 89.6 5.75 58.09Zm3.16 1.24 27.82 17.39-38.26 7Z" data-name="Layer 2"/></svg>