<?xml version="1.0" encoding="UTF-8" standalone="no"?>
<svg
   viewBox="0 0 541.53217 512"
   version="1.1"
   id="front-cover-icon"
   sodipodi:docname="book-front-cover.svg"
   width="541.53217"
   height="512"
   inkscape:version="1.2.2 (732a01da63, 2022-12-09)"
   xmlns:inkscape="http://www.inkscape.org/namespaces/inkscape"
   xmlns:sodipodi="http://sodipodi.sourceforge.net/DTD/sodipodi-0.dtd"
   xmlns="http://www.w3.org/2000/svg"
   xmlns:svg="http://www.w3.org/2000/svg">
  <defs
     id="defs22131" />
  <sodipodi:namedview
     id="namedview22129"
     pagecolor="#ffffff"
     bordercolor="#111111"
     borderopacity="1"
     inkscape:showpageshadow="0"
     inkscape:pageopacity="0"
     inkscape:pagecheckerboard="1"
     inkscape:deskcolor="#d1d1d1"
     showgrid="false"
     inkscape:zoom="0.39257813"
     inkscape:cx="-263.64179"
     inkscape:cy="444.49751"
     inkscape:window-width="1920"
     inkscape:window-height="991"
     inkscape:window-x="-9"
     inkscape:window-y="-9"
     inkscape:window-maximized="1"
     inkscape:current-layer="svg22127" />
  <!--! Font Awesome Pro 6.3.0 by @fontawesome - https://fontawesome.com License - https://fontawesome.com/license (Commercial License) Copyright 2023 Fonticons, Inc. -->
  <g
     id="g20308"
     transform="matrix(3.7795276,0,0,3.7795276,-201.76367,-251.58203)">
    <path
       id="rect20232"
       style="fill:#000000;fill-opacity:1;stroke:none;stroke-width:17.9;stroke-linejoin:bevel;stroke-dasharray:none;stroke-opacity:1;paint-order:stroke markers fill;stop-color:#000000"
       d="m 78.783305,66.564412 c -14.022889,0 -25.4,11.377111 -25.4,25.4 v 84.666668 c 0,14.02289 11.377111,25.4 25.4,25.4 h 76.199995 8.46667 c 4.68312,0 8.46667,-3.78355 8.46667,-8.46667 0,-4.68311 -3.78355,-8.46666 -8.46667,-8.46666 v -16.93334 c 4.68312,0 8.46667,-3.78355 8.46667,-8.46666 v -1.9327 c -0.0322,-0.27545 -0.0652,-0.54693 -0.0946,-0.83923 -0.17511,-1.74441 -0.30542,-3.81626 -0.37672,-6.02909 -0.18285,-5.67612 -0.29322,-5.86808 -0.63459,-6.62698 -0.74838,-1.66366 -2.65792,-3.64941 -4.38681,-4.49844 -1.41973,-0.69716 -0.72585,-0.45434 -1.20923,-0.51934 -0.47548,-0.0639 -2.54581,-0.13856 -6.47454,-0.14056 -0.0907,2.9929 -0.0862,4.81682 -0.58601,7.244 -0.28023,1.36071 -0.97957,3.42078 -2.40812,5.10356 -1.42519,1.67884 -2.81498,2.35811 -3.28145,2.61896 -3.14428,1.76375 -5.09549,2.43427 -9.41597,1.33997 -2.05224,-0.5197 -2.32631,-0.92288 -2.76159,-1.19527 -0.43528,-0.27239 -0.71007,-0.47684 -0.97461,-0.67593 -0.52909,-0.39816 -0.97871,-0.77171 -1.48622,-1.20664 -1.015,-0.86987 -2.20927,-1.95397 -3.6096,-3.26182 -2.80065,-2.61568 -6.38094,-6.09226 -10.18335,-9.90844 -6.19117,-6.21357 -9.5466,-9.59164 -11.7874,-12.16412 -1.1204,-1.28623 -2.03413,-2.38181 -2.90576,-4.03127 -0.87162,-1.64948 -1.40664,-4.21493 -1.40664,-5.61103 0,-1.4012 0.54783,-3.99366 1.42989,-5.64668 0.88206,-1.65304 1.8039,-2.74855 2.94142,-4.04679 2.27504,-2.59646 5.70131,-6.03358 12.03699,-12.369267 7.37691,-7.376888 10.87768,-11.090687 14.75208,-13.810527 1.45289,-1.019939 3.46378,-2.249133 6.08386,-2.580204 0.87337,-0.110323 1.8133,-0.120299 2.82412,0.0098 4.0433,0.520471 6.12413,2.832857 7.01973,3.728454 1.29782,1.297845 3.1373,4.826955 3.46852,7.049182 0.29817,2.00025 0.26393,3.770666 0.25993,6.212541 0.57954,0.0034 0.50388,0.0217 1.17564,0.0217 4.54211,0 8.44363,0.111537 11.991,0.50953 v -21.41004 c 0,-4.683115 -3.78355,-8.466667 -8.46667,-8.466667 h -8.46667 z m 0,101.599998 h 67.733335 v 16.93334 H 78.783305 c -4.683115,0 -8.466667,-3.78357 -8.466667,-8.46667 0,-4.68313 3.783552,-8.46667 8.466667,-8.46667 z" />
    <path
       style="color:#000000;fill:#000000;stroke-width:17.9;stroke-linejoin:round;-inkscape-stroke:none;paint-order:stroke markers fill"
       d="m 186.69094,157.95633 c 2.67243,-2.24871 7.17957,-9.39389 8.63888,-13.69528 1.03796,-3.05942 1.31928,-5.13546 1.33362,-9.84167 0.0278,-9.1246 -2.25302,-14.5915 -8.79325,-21.07662 -6.8535,-6.79576 -12.35348,-8.46107 -27.94423,-8.46107 -8.05417,0 -9.45684,-0.12924 -9.75203,-0.89852 -0.18964,-0.49417 -0.34479,-3.81715 -0.34479,-7.384389 0,-5.728497 -0.13266,-6.618534 -1.13607,-7.621956 -2.57777,-2.57775 -3.29907,-2.07141 -18.02212,12.651595 -12.64444,12.64444 -13.78771,13.94921 -13.78771,15.73575 0,1.78396 1.13629,3.08846 13.49078,15.48766 7.47518,7.50224 14.10644,13.69554 14.8715,13.88928 0.78576,0.19902 2.0096,-0.002 2.84016,-0.46789 1.42969,-0.80092 1.46523,-0.97351 1.74346,-8.46583 l 0.28402,-7.64825 h 8.52049 c 8.16738,0 8.65373,0.0655 11.73586,1.579 3.72428,1.82893 6.9202,5.12058 8.60236,8.86006 0.94352,2.09748 1.22898,4.1112 1.41901,10.01012 0.13083,4.06143 0.49647,7.70394 0.81253,8.09446 0.94895,1.17251 3.64241,0.80611 5.48753,-0.74645 z"
       id="path20297" />
  </g>
</svg>
