<?xml version="1.0" encoding="UTF-8" standalone="no"?>
<svg
   viewBox="0 0 541.53217 512"
   version="1.1"
   id="back-cover-icon"
   sodipodi:docname="book-front-cover.svg"
   width="541.53217"
   height="512"
   inkscape:version="1.2.2 (732a01da63, 2022-12-09)"
   xmlns:inkscape="http://www.inkscape.org/namespaces/inkscape"
   xmlns:sodipodi="http://sodipodi.sourceforge.net/DTD/sodipodi-0.dtd"
   xmlns="http://www.w3.org/2000/svg"
   xmlns:svg="http://www.w3.org/2000/svg">
  <defs
     id="defs22131" />
  <sodipodi:namedview
     id="namedview22129"
     pagecolor="#ffffff"
     bordercolor="#111111"
     borderopacity="1"
     inkscape:showpageshadow="0"
     inkscape:pageopacity="0"
     inkscape:pagecheckerboard="1"
     inkscape:deskcolor="#d1d1d1"
     showgrid="false"
     inkscape:zoom="0.39257813"
     inkscape:cx="-263.64179"
     inkscape:cy="444.49751"
     inkscape:window-width="1920"
     inkscape:window-height="991"
     inkscape:window-x="-9"
     inkscape:window-y="-9"
     inkscape:window-maximized="1"
     inkscape:current-layer="svg22127" />
  <!--! Font Awesome Pro 6.3.0 by @fontawesome - https://fontawesome.com License - https://fontawesome.com/license (Commercial License) Copyright 2023 Fonticons, Inc. -->
<g id="g20308" transform="matrix(3.7795276,0,0,3.7795276,-201.76367,-251.58203)">
	<path id="rect20232" d="M95.1,66.6h-8.5c-4.7,0-8.5,3.8-8.5,8.5v21.4c3.5-0.4,7.4-0.5,12-0.5c0.7,0,0.6,0,1.2,0
		c0-2.4,0-4.2,0.3-6.2c0.3-2.2,2.2-5.8,3.5-7c0.9-0.9,3-3.2,7-3.7c1-0.1,2-0.1,2.8,0c2.6,0.3,4.6,1.6,6.1,2.6
		c3.9,2.7,7.4,6.4,14.8,13.8c6.3,6.3,9.8,9.8,12,12.4c1.1,1.3,2.1,2.4,2.9,4c0.9,1.7,1.4,4.2,1.4,5.6c0,1.4-0.5,4-1.4,5.6
		c-0.9,1.6-1.8,2.7-2.9,4c-2.2,2.6-5.6,6-11.8,12.2c-3.8,3.8-7.4,7.3-10.2,9.9c-1.4,1.3-2.6,2.4-3.6,3.3c-0.5,0.4-1,0.8-1.5,1.2
		c-0.3,0.2-0.5,0.4-1,0.7s-0.7,0.7-2.8,1.2c-4.3,1.1-6.3,0.4-9.4-1.3c-0.5-0.3-1.9-0.9-3.3-2.6c-1.4-1.7-2.1-3.7-2.4-5.1
		c-0.5-2.4-0.5-4.3-0.6-7.2c-3.9,0-6,0.1-6.5,0.1c-0.5,0.1,0.2-0.2-1.2,0.5c-1.7,0.8-3.6,2.8-4.4,4.5c-0.3,0.8-0.5,1-0.6,6.6
		c-0.1,2.2-0.2,4.3-0.4,6c0,0.3-0.1,0.6-0.1,0.8v1.9c0,4.7,3.8,8.5,8.5,8.5v16.9c-4.7,0-8.5,3.8-8.5,8.5c0,4.7,3.8,8.5,8.5,8.5h8.5
		h76.2c14,0,25.4-11.4,25.4-25.4V92c0-14-11.4-25.4-25.4-25.4L95.1,66.6z M171.3,168.2c4.7,0,8.5,3.8,8.5,8.5c0,4.7-3.8,8.5-8.5,8.5
		h-67.7v-16.9L171.3,168.2L171.3,168.2z"/>
	<path id="path20297" d="M63.4,158c1.8,1.6,4.5,1.9,5.5,0.7c0.3-0.4,0.7-4,0.8-8.1c0.2-5.9,0.5-7.9,1.4-10c1.7-3.7,4.9-7,8.6-8.9
		c3.1-1.5,3.6-1.6,11.7-1.6h8.5l0.3,7.6c0.3,7.5,0.3,7.7,1.7,8.5c0.8,0.5,2.1,0.7,2.8,0.5c0.8-0.2,7.4-6.4,14.9-13.9
		c12.4-12.4,13.5-13.7,13.5-15.5c0-1.8-1.1-3.1-13.8-15.7c-14.7-14.7-15.4-15.2-18-12.7c-1,1-1.1,1.9-1.1,7.6c0,3.6-0.2,6.9-0.3,7.4
		c-0.3,0.8-1.7,0.9-9.8,0.9c-15.6,0-21.1,1.7-27.9,8.5c-6.5,6.5-8.8,12-8.8,21.1c0,4.7,0.3,6.8,1.3,9.8
		C56.2,148.6,60.7,155.7,63.4,158L63.4,158z"/>
</g>
</svg>
