<svg xmlns="http://www.w3.org/2000/svg" viewBox="0 0 791.04 953.29"><title>Davek</title><g id="Layer_2" data-name="Layer 2"><g id="Davek"><path d="M178.41,13.46a19.33,19.33,0,0,0-4.71,5.38q8.07,6.07,13.46,6.07a8.27,8.27,0,0,0,4.71-1.35,130.23,130.23,0,0,0,16.83-7.07,74.55,74.55,0,0,1,18.85-6.39h2.7q8.07,0,14.81,8.74a944.19,944.19,0,0,0,95.6,4.72q19.5,0,38.37-.67,69.33-2,139.68-5.72t139.7-5.06q16.82-.64,34.34-.66,50.49,0,98.29,3.36-17.5,12.12-22.55,31.64t-5,33.66q.64,22.89.66,45.1,0,47.13-3.36,97-6.07,74.05-9.78,148.11t-5,146.09v17.51a766.1,766.1,0,0,0,8.75,118.48,38.57,38.57,0,0,0-4,17.51,30.94,30.94,0,0,0,.67,6.06q2,12.12,3.36,23.22c.9,7.42,1.57,14.92,2,22.55v3.37a57.93,57.93,0,0,1-3.36,19.52c.43,4.5.67,8.77.67,12.8a260.65,260.65,0,0,1-2.7,37,344.26,344.26,0,0,0-4,52.52,133.5,133.5,0,0,0,8.09,45.44q8.07,22.57,33,36.68-6.06,8.78-20.19,8.77H762.1c-4.5-.45-8.53-.69-12.12-.69a78.11,78.11,0,0,0-21.54,2.7,579.1,579.1,0,0,0-63.64,3.71q-33.31,3.71-67.65,6.39t-68.66,3.37h-4a188.05,188.05,0,0,1-59.92-9.43q20.19-4,39.06-23.22t20.19-47.46q11.44-22.21,11.45-49.82a320.44,320.44,0,0,1,3.36-49.15q-9.45-4.69-10.09-8.75v-2.7a73,73,0,0,1,.66-8.74,105.81,105.81,0,0,0,3.37-12.8,7.49,7.49,0,0,0,.68-3.37q0-4.7-4.05-10.09c.45-4.93.69-10.1.69-15.48a311.71,311.71,0,0,0-3.37-46.45,207.31,207.31,0,0,1-1.35-24.25,274.58,274.58,0,0,1,4-45.1l15.5,6.73q-3.37-17.49-3.37-41.07,0-24.89,8.75-44.44a27.73,27.73,0,0,0,2-9.43,15.32,15.32,0,0,0-3.36-10.09,60.75,60.75,0,0,1-10.1-15.48l-7.39,6.73q2.67-47.79,8.74-99,3.35-33.63,3.37-65.29,0-14.81-.69-29a205.09,205.09,0,0,1-4-41.74,190.26,190.26,0,0,1,2-26.92q4-37,14.81-67.33a25.14,25.14,0,0,1-2.68-11.43,31.13,31.13,0,0,1,.66-6.07V140q0-6.72-8.74-10.09-3.37-16.83-5.73-31.3T521.07,77.41q-55.2,2.7-115.78,4.71-19.55.7-39.72.69-38.38,0-74.06-2.7c-5.4,4.5-8.08,9.21-8.08,14.14v1.34a41.5,41.5,0,0,0,4.37,15.49q3.7,7.4,7.4,15.16a35,35,0,0,1,3.71,15.13q32.31,34.35,64,68.68a335.89,335.89,0,0,1,51.83,73.38q13.46,7.4,18.51,17.49t10.11,19.87q5.06,9.78,10.1,18.85t16.5,11.78v12.12a194.5,194.5,0,0,1-37.38-4q-20.52-4-40.73-6.73a114.48,114.48,0,0,0-17.49-1.35,97.2,97.2,0,0,0-20.2,2q-17.52,4.05-31,20.19-16.84-1.35-27.27-9.75a76.13,76.13,0,0,1-17.51-20.2q-7.06-11.76-14.47-24.9a79.77,79.77,0,0,0-18.84-22.57A305.87,305.87,0,0,1,177.73,237q-28.29-33.67-54.54-69T68,99.31A381.16,381.16,0,0,0,0,38.37q12.79,0,22.89-9.75A190.69,190.69,0,0,1,44.76,10.44Q56.54,2,68.66,0H72Q82.8,0,97,10.76Z"/></g></g></svg>