<?xml version="1.0" encoding="utf-8"?>
<!-- Generator: Adobe Illustrator 24.0.0, SVG Export Plug-In . SVG Version: 6.00 Build 0)  -->
<svg version="1.1" id="Layer_1" xmlns="http://www.w3.org/2000/svg" xmlns:xlink="http://www.w3.org/1999/xlink" x="0px" y="0px"
	 viewBox="0 0 610.4 816.5" style="enable-background:new 0 0 610.4 816.5;" xml:space="preserve">
<style type="text/css">
	.st0{fill:#FFFFFF;}
	.st1{fill:#FFFFFF;stroke:#FFFFFF;stroke-width:20;stroke-miterlimit:10;}
</style>
<title>fa-file-c</title>
<g id="Layer_2_1_">
	<g id="Layer_1-2">
		<g id="page">
			<path id="page-2" d="M610.3,468.3c0,77.3,0.2,154.5,0,231.8s-39.8,116.5-116.8,116.4c-127.6,0-255.1,0-382.7,0
				c-68.1,0-110.5-41.7-110.6-109.8c-0.2-197.7-0.2-395.5,0-593.2c0-68.4,43.2-110.9,112.1-111c90-0.1,180,0.2,270-0.2
				c12.8,0,21.5,0.6,32.9,4c17.1,5,152.7,150.7,190.7,188.8c-0.7,18-6,5.7,1.4,35.1c0,6.8,3.1,11.2,3.1,18.1
				C610.2,320.8,610.3,395.7,610.3,468.3z"/>
			<path id="white_corner" class="st0" d="M364.1,0v200c0,9.3,1.7,25.6,13.1,36.8c12,11.7,28.8,12.1,37.5,12.2
				c119.8,1.3,195.6,0.4,195.6,0.4l0,0l-0.3-54.3l-197,1l3-192L364.1,0z"/>
		</g>
		<path class="st1" d="M317.7,719.8c-38.3,0-71-8.1-98.3-24.3c-27.2-16.2-48.1-39.2-62.7-69C142.3,596.8,135,561.2,135,520
			c0-30.9,4.1-58.6,12.4-83.1c8.3-24.5,20.2-45.3,35.9-62.4c15.6-17.1,34.9-30.4,57.7-39.8s48.4-14.1,76.7-14.1
			c22.1-0.1,44,3.1,65.1,9.7c20.6,6.4,38.4,15.9,53.5,28.4c4.8,3.7,8,7.8,9.7,12.4c1.6,4.2,1.8,8.9,0.6,13.2
			c-1.2,4.1-3.5,7.7-6.6,10.5c-3.1,2.8-7.2,4.2-11.3,4.1c-4.4,0-9.4-1.8-14.9-5.5c-13-10.5-27.7-18.6-43.6-23.7
			c-16.6-5.3-33.9-7.9-51.3-7.7c-29.1,0-53.7,6.2-74,18.5s-35.5,30.3-45.8,53.8c-10.3,23.6-15.4,52.1-15.4,85.5s5.1,62.1,15.4,85.9
			c10.3,23.7,25.6,41.8,45.8,54.1c20.2,12.3,44.9,18.5,74,18.5c17.4,0.1,34.8-2.6,51.3-8c16.2-5.3,31.3-13.5,44.7-24
			c5.5-3.7,10.5-5.4,14.9-5.3c4,0.1,7.9,1.5,11,4.1c3,2.7,5.2,6.1,6.4,9.9c1.3,4.1,1.3,8.6,0,12.7c-1.3,4.4-4.1,8.3-8.6,11.6
			c-15.5,13.3-33.6,23.3-54.4,30.1C362.7,716.6,340.3,720,317.7,719.8z"/>
	</g>
</g>
</svg>
