<svg xmlns="http://www.w3.org/2000/svg" viewBox="0 0 610.38 816.48"><defs><style>.cls-1{fill:#000;}.cls-2,.cls-3{fill:#fff;}.cls-3{stroke:#fff;stroke-miterlimit:10;stroke-width:13px;}</style></defs><title>fa-file-b</title><g id="Layer_2" data-name="Layer 2"><g id="Layer_1-2" data-name="Layer 1"><g id="page"><path id="page-2" data-name="page" class="cls-1" d="M610.31,468.27c0,77.26.15,154.51,0,231.76S570.55,816.48,493.48,816.47q-191.35,0-382.72,0C42.7,816.46.24,774.73.16,706.67q-.34-296.61,0-593.21C.2,45.08,43.39,2.52,112.31,2.41c90-.14,180,.23,270-.18,12.84,0,21.51.58,32.85,4C432.27,11.27,567.88,156.88,605.91,195c-.74,18-6,5.73,1.36,35.15,0,6.83,3.08,11.24,3.06,18.07C610.2,320.79,610.31,395.72,610.31,468.27Z"/><path id="white_corner" data-name="white corner" class="cls-2" d="M364.11,0V200c.05,9.31,1.66,25.57,13.15,36.76,12,11.69,28.84,12.1,37.52,12.19,119.85,1.25,195.6.36,195.6.36h0L610.11,195l-197,1,3-192Z"/></g><path class="cls-3" d="M190.62,711.45q-12.15,0-18.49-6.35t-6.35-18.49V347.13q0-12.13,6.35-18.49t18.49-6.35H321.45q40.28,0,68.17,11.87t42.78,34.5q14.91,22.63,14.9,55.2,0,36.42-21.25,60.72t-57.68,32v-7.73q41.4,5,64.86,29.81t23.46,65.69q0,51.89-33.68,79.49t-94.94,27.6Zm19.32-215.28H314.82q43.07,0,65.41-17.67t22.36-50.78q0-34.22-22.36-51.61t-65.41-17.39H209.94Zm0,178.85H323.66q44.14,0,66.23-17.67T412,603.81q0-36.43-22.08-53.82T323.66,532.6H209.94Z"/></g></g></svg>