<?xml version="1.0" encoding="UTF-8" standalone="no"?>
<!DOCTYPE svg PUBLIC "-//W3C//DTD SVG 1.1//EN" "http://www.w3.org/Graphics/SVG/1.1/DTD/svg11.dtd">
<svg width="100%" height="100%" viewBox="0 0 90 90" version="1.1" xmlns="http://www.w3.org/2000/svg" xmlns:xlink="http://www.w3.org/1999/xlink" xml:space="preserve" xmlns:serif="http://www.serif.com/" style="fill-rule:evenodd;clip-rule:evenodd;stroke-linejoin:round;stroke-miterlimit:2;">
    <path d="M22.389,24.483C22.389,26.492 32.515,28.124 45.001,28.124C57.493,28.124 67.616,26.493 67.616,24.483C67.616,23.302 64.097,22.251 58.663,21.584C57.03,23.577 54.45,24.887 51.514,24.887C48.232,24.887 45.394,23.256 43.833,20.846C31.894,20.946 22.389,22.535 22.389,24.483Z"/>
    <path d="M90,54.638C90,45.487 87.723,39.695 81.647,32.501C83.64,31.169 85.86,28.742 85.86,25.452C85.86,17.848 70.447,15.586 60.061,14.347C60.302,15.091 60.475,15.864 60.475,16.682C60.475,16.777 60.449,16.861 60.443,16.956C60.41,17.856 60.218,18.714 59.891,19.517C70.377,20.869 76.598,23.475 76.598,25.453C76.598,28.24 64.29,32.291 45,32.291C25.713,32.291 13.403,28.24 13.403,25.453C13.403,22.773 24.808,18.934 42.836,18.643C42.723,18.226 42.653,17.792 42.606,17.354L42.625,17.354C42.606,17.129 42.553,16.914 42.553,16.683C42.553,15.54 42.813,14.449 43.276,13.459C35.459,13.595 4.14,13.798 4.14,25.453C4.14,30.88 8.106,31.735 9.38,33.21C3.304,40.403 0,45.488 0,54.639C0,66.814 5.973,75.838 16.92,81.117C15.881,84.434 15.318,88.557 18.199,89.743C21.223,90.985 24.376,87.488 26.388,84.466C31.835,85.795 38.054,86.493 44.999,86.493C51.947,86.493 58.159,85.796 63.606,84.467C65.621,87.488 68.78,90.983 71.796,89.743C74.679,88.559 74.115,84.434 73.078,81.12C84.028,75.837 90,66.812 90,54.638ZM70.311,37.99C75.723,42.518 79.062,48.475 79.062,55.028C79.062,70.695 60.54,73.982 45.001,73.982C29.464,73.982 10.941,70.695 10.941,55.028C10.941,48.475 14.28,42.521 19.694,37.988C25.237,39.967 35.146,40.99 45.001,40.99C54.856,40.99 64.768,39.967 70.311,37.99Z"/>
    <path d="M51.513,23.406C55.572,23.406 58.859,20.398 58.859,16.682C58.859,12.972 55.57,9.961 51.513,9.961C47.461,9.961 44.171,12.972 44.171,16.682C44.171,20.397 47.462,23.406 51.513,23.406Z"/>
    <ellipse cx="65.621" cy="8.193" rx="6.554" ry="6"/>
    <ellipse cx="53.773" cy="4.657" rx="5.086" ry="4.657"/>
</svg>
