<svg xmlns="http://www.w3.org/2000/svg" viewBox="0 0 428.05 941.17"><title>Iokharic</title><g id="Layer_2" data-name="Layer 2"><g id="Iokharic"><path d="M334.76,909.61V259.3l2.74-89.18c3.43,0,6.18-8.23,7.55-24.69,3.43,0,7.55-8.92,13.72-27.44,13-11,19.89-21.27,19.89-31.56,0-13-5.48-20.58-17.15-23.32l-30.87,2.74H320.36c-21.27,13-39.79,22.64-56.94,27.44h-37c-11.67,0-26.76,7.55-46,22q-12.34,0-30.86,16.46c-10.29,0-40.48,26.75-91.93,80.95,0,8.23-6.17,21.26-18.52,38.41l-3.43,15.78v41.84L67.23,343c2.74,0,9.6,6.86,19.89,19.9,24,18.52,36.36,30.86,36.36,38.41l-12.35,10.29H105c-24.7-15.78-45.28-32.93-62.43-52.13L15.78,316.92,0,266.85c3.43-17.84,7.55-29.5,13.72-35v-11c0-18.52,7.55-39.79,22-63.8,0-9.6,8.23-21.27,24.7-34.3,0-9.6,15.77-26.07,46.64-50.08,19.9-16.46,46-28.12,76.83-35,5.49-6.86,21.27-14.41,46.65-21.95C238,5.49,251.07,0,270.28,0h137.2c8.91,0,15.77,8.23,20.57,24V40.47l-5.48,8.23V166c0,17.15-7.55,31.55-21.95,43.22v41.15l-2.75,24.7q0,9.26,24.7,30.87v38.41c0,10.29-4.81,19.9-15.09,28.82h-6.86V558.39c0,55.57-4.81,97.41-15.1,124.16-4.8,2.75-7.54,19.21-9.6,48.71l2.74,17.15-2.74,76.14v30.19q0,32.93-32.93,86.43C337.5,937.74,334.76,926.76,334.76,909.61Z"/></g></g></svg>
