<svg xmlns="http://www.w3.org/2000/svg" viewBox="0 0 495 495"><g fill-opacity=".995"><path d="M0 359.51V495h135.49V359.51M12.28 483.63V370.37H123.1v113.26zM359.51 179.755v135.49H495v-135.49m-123.21 124.12v-113.26h110.82v113.26zM359.51 359.51V495H495V359.51M371.79 483.63V370.37h110.82v113.26zM179.755 359.51V495h135.49V359.51m-123.21 124.12V370.37h110.82v113.26zM179.755 179.755v135.49h135.49v-135.49m-123.21 124.12v-113.26h110.82v113.26zM0 179.755v135.49h135.49v-135.49M12.28 303.875v-113.26H123.1v113.26zM359.51 0v135.49H495V0ZM179.755 0v135.49h135.49V0m-123.21 124.12V10.86h110.82v113.26zM0 0v135.49h135.49V0M12.28 124.12V10.86H123.1v113.26z"/></g></svg>