<svg xmlns="http://www.w3.org/2000/svg" viewBox="0 0 495 495"><g fill-opacity=".995"><path d="M135.49 0H0v135.49h135.49M11.37 12.28h113.26V123.1H11.37zM315.245 359.51h-135.49V495h135.49m-124.12-123.21h113.26v110.82h-113.26zM135.49 359.51H0V495h135.49M11.37 371.79h113.26v110.82H11.37zM135.49 179.755H0v135.49h135.49M11.37 192.035h113.26v110.82H11.37zM315.245 179.755h-135.49v135.49h135.49m-124.12-123.21h113.26v110.82h-113.26zM315.245 0h-135.49v135.49h135.49M191.125 12.28h113.26V123.1h-113.26zM495 359.51H359.51V495H495ZM495 179.755H359.51v135.49H495m-124.12-123.21h113.26v110.82H370.88zM495 0H359.51v135.49H495M370.88 12.28h113.26V123.1H370.88z"/></g></svg>