<svg xmlns="http://www.w3.org/2000/svg" viewBox="0 0 495 495"><path fill-opacity=".995" d="M359.51 495H495V359.51H359.51m124.12 123.21H370.37V371.9h113.26zM179.755 135.49h135.49V0h-135.49m124.12 123.21h-113.26V12.39h113.26zM359.51 135.49H495V0H359.51m124.12 123.21H370.37V12.39h113.26zM359.51 315.245H495v-135.49H359.51m124.12 123.21H370.37v-110.82h113.26zM179.755 315.245h135.49v-135.49h-135.49m124.12 123.21h-113.26v-110.82h113.26zM179.755 495h135.49V359.51h-135.49m124.12 123.21h-113.26V371.9h113.26zM0 135.49h135.49V0H0ZM0 315.245h135.49v-135.49H0m124.12 123.21H10.86v-110.82h113.26zM0 495h135.49V359.51H0m124.12 123.21H10.86V371.9h113.26z"/></svg>