<svg xmlns="http://www.w3.org/2000/svg" viewBox="0 0 495 495"><path fill-opacity=".995" d="M495 135.49V0H359.51v135.49M482.72 11.37v113.26H371.9V11.37zM135.49 315.245v-135.49H0v135.49m123.21-124.12v113.26H12.39v-113.26zm12.28-55.635V0H0v135.49M123.21 11.37v113.26H12.39V11.37zm192.035 124.12V0h-135.49v135.49m123.21-124.12v113.26h-110.82V11.37zm12.28 303.875v-135.49h-135.49v135.49m123.21-124.12v113.26h-110.82v-113.26zM495 315.245v-135.49H359.51v135.49m123.21-124.12v113.26H371.9v-113.26zM135.49 495V359.51H0V495Zm179.755 0V359.51h-135.49V495m123.21-124.12v113.26h-110.82V370.88zM495 495V359.51H359.51V495m123.21-124.12v113.26H371.9V370.88z"/></svg>