<svg xmlns="http://www.w3.org/2000/svg" viewBox="0 0 527.7 940.25"><title>Rellanic</title><g id="Layer_2" data-name="Layer 2"><g id="Rellanic"><path d="M527.7,5.45q-3.83,19.65-15,30.56a129.61,129.61,0,0,1-26.46,19.64q-9.84,6.56-31.66,15.28-19.63,7.65-31.64,16.38Q380.33,103.69,342.16,108a468.46,468.46,0,0,1-54,3.28q-15.83,0-30.56-1.1a53.19,53.19,0,0,0-20.19-6.55H217.74q-7.12,1.11-21.29,1.1a51.67,51.67,0,0,1-20.18-4.36q8.72,19.65,25.63,29.46,14.19,8.74,28.38,29.47a634.05,634.05,0,0,1,98.78,90.58l91.12,103.69a65.1,65.1,0,0,0-.54,8.19,42.47,42.47,0,0,0,.54,7.09c.73,1.82,1.27,3.29,1.64,4.37q7.08,8.75,10.92,12,1.62,1.1,12.55,14.19a14,14,0,0,1,3.27,6.55,9.75,9.75,0,0,1,1.1,4.37,9.62,9.62,0,0,1-1.1,4.36q35.46,43.66,51.3,89.5,3.25,9.82,5.45,19.64a288.59,288.59,0,0,1,10.37,68.75v8.19a296,296,0,0,1-9.81,76.94q-7.12,27.3-24,77.5L418,831.65Q383,872,344.88,899.31a243.27,243.27,0,0,1-90.59,38.19,179.84,179.84,0,0,1-31.64,2.75q-38.78,0-81.87-15.84A293.78,293.78,0,0,1,78,886.22a312.61,312.61,0,0,1-51.85-48,300.52,300.52,0,0,0-18-46.94,60.18,60.18,0,0,1-4.92-13.64,82.36,82.36,0,0,1-2.19-19.11,104.89,104.89,0,0,1,.56-10.91,176.12,176.12,0,0,1-1.64-24,199.79,199.79,0,0,1,2.72-32.74Q5.45,663,5.45,645a103.71,103.71,0,0,0-.54-10.92,242.44,242.44,0,0,1,50.74-67.66,646.83,646.83,0,0,0,57.86-61.12q11.44-10.89,25.09-13.1A88.3,88.3,0,0,1,163.71,489q14.17-1.11,29.46-1.1a108.11,108.11,0,0,0,28.38-7.63q17.44,8.75,27.29,12a124.47,124.47,0,0,1,28.38,13.1q8.71,4.38,23.46,17.46,9.29,9.86,17.47,28.38,7.07,12,9.27,21.83a35.16,35.16,0,0,1,1.64,9.83V585a80.23,80.23,0,0,1-8.73,27.28q-8.2,14.19-18,22.93a166.18,166.18,0,0,1-19.65,19.64q-13.1,8.74-20.72,13.1l-7.65-4.37v-1.64q0-12,6.55-18-8.17-6.55-10.36-10.92l-2.18-8.73c0-2.18-.74-5.81-2.19-10.91v-3.29a38,38,0,0,0-3.82-7.63,196.53,196.53,0,0,0-33.84-40.39Q185.53,542.43,162.61,537a163.71,163.71,0,0,0-50.75,9.81q-25.08,8.76-32.2,36Q67.12,615.56,67.13,654.3a256,256,0,0,0,3.26,39.83,176.75,176.75,0,0,0,5.47,28.38Q88.37,770,122.78,812a452.22,452.22,0,0,0,103.13,58.94,153.57,153.57,0,0,0,107,5.45q25.63-12,37.66-27.28,13.62-14.21,23.46-34.93,10.36-18.57,20.2-39.29Q426.72,753.05,437.1,740q3.27-44.76,5.47-61.12a228.17,228.17,0,0,0,3.26-38.21,213.15,213.15,0,0,0-1.64-26.19,245.3,245.3,0,0,0-8.17-48q-2.2-8.17-4.93-16.36-9.27-30.55-34.92-61.12a70,70,0,0,0-2.18-18,29.12,29.12,0,0,0-4.37-10.37,175.28,175.28,0,0,0-17.46-29.48l-18.55-27.27q-12-16.38-16.38-28.38a282.35,282.35,0,0,1-27.81-28.37q-20.22-26.2-24-31.66Q269,295.76,260.29,286q-10.92-12-31.1-25.11-36.56-31.65-79.12-70.94-45.31-39.28-88.41-66.58-14.74-8.17-17.46-16.9a16.93,16.93,0,0,0-.54-3.83V99.87q0-8.73,6.54-19.11A102.47,102.47,0,0,1,63.3,61.12q9.27-9.82,12.56-18.56a223.6,223.6,0,0,1,38.73-3.27,271,271,0,0,1,40.93,3.27A367.15,367.15,0,0,0,215,47.48c6.91,0,13.64-.17,20.2-.56a45,45,0,0,0,21.27,5.47q17.44,0,25.65-1.1h22.93a77.75,77.75,0,0,1,24,7.65,114,114,0,0,1,27.82-3.29H364q27.25,2.2,39.29,2.19,16.34,0,36.55-5.45,19.1-6.55,27.83-22.93h2.72A20.48,20.48,0,0,0,484.58,24c2.17-4.71,6.17-7.09,12-7.09a26.6,26.6,0,0,1,4.92.54v-.54c0-1.08.72-3.46,2.19-7.11a36.74,36.74,0,0,1,6-6.54C512.57,1.1,515.12,0,517.32,0,521,0,524.41,1.82,527.7,5.45Z"/></g></g></svg>